{
  "accessors": [
    {
      "bufferView": 2,
      "componentType": 5126,
      "count": 28358,
      "max": [
        0.23731502890586853,
        0.03557298704981804,
        0.7000446319580078
      ],
      "min": [
        -0.24054481089115143,
        -0.053765684366226196,
        -0.6811648607254028
      ],
      "type": "VEC3"
    },
    {
      "bufferView": 2,
      "byteOffset": 340296,
      "componentType": 5126,
      "count": 28358,
      "max": [
        1.0,
        1.0,
        1.0
      ],
      "min": [
        -1.0,
        -1.0,
        -1.0
      ],
      "type": "VEC3"
    },
    {
      "bufferView": 3,
      "componentType": 5126,
      "count": 28358,
      "max": [
        1.0,
        1.0,
        1.0,
        1.0
      ],
      "min": [
        -1.0,
        -1.0,
        -1.0,
        -1.0
      ],
      "type": "VEC4"
    },
    {
      "bufferView": 1,
      "componentType": 5126,
      "count": 28358,
      "max": [
        0.9966234564781189,
        0.999462366104126
      ],
      "min": [
        0.002407012041658163,
        0.0017806291580200195
      ],
      "type": "VEC2"
    },
    {
      "bufferView": 1,
      "byteOffset": 226864,
      "componentType": 5126,
      "count": 28358,
      "max": [
        0.9966234564781189,
        0.999462366104126
      ],
      "min": [
        0.002407012041658163,
        0.0017806291580200195
      ],
      "type": "VEC2"
    },
    {
      "bufferView": 1,
      "byteOffset": 453728,
      "componentType": 5126,
      "count": 28358,
      "max": [
        0.9966234564781189,
        0.999462366104126
      ],
      "min": [
        0.002407012041658163,
        0.0017806291580200195
      ],
      "type": "VEC2"
    },
    {
      "bufferView": 1,
      "byteOffset": 680592,
      "componentType": 5126,
      "count": 28358,
      "max": [
        0.9966234564781189,
        0.999462366104126
      ],
      "min": [
        0.002407012041658163,
        0.0017806291580200195
      ],
      "type": "VEC2"
    },
    {
      "bufferView": 0,
      "componentType": 5125,
      "count": 105471,
      "type": "SCALAR"
    }
  ],
  "asset": {
    "extras": {
      "author": "Lou Chevreux (https://sketchfab.com/Redaime)",
      "license": "CC-BY-NC-4.0 (http://creativecommons.org/licenses/by-nc/4.0/)",
      "source": "https://sketchfab.com/3d-models/fender-jaguar-guitar-c292cf66d83c4dbc8d97cedf26f3e9b5",
      "title": "Fender Jaguar Guitar"
    },
    "generator": "Sketchfab-16.85.0",
    "version": "2.0"
  },
  "bufferViews": [
    {
      "buffer": 0,
      "byteLength": 421884,
      "name": "floatBufferViews",
      "target": 34963
    },
    {
      "buffer": 0,
      "byteLength": 907456,
      "byteOffset": 421884,
      "byteStride": 8,
      "name": "floatBufferViews",
      "target": 34962
    },
    {
      "buffer": 0,
      "byteLength": 680592,
      "byteOffset": 1329340,
      "byteStride": 12,
      "name": "floatBufferViews",
      "target": 34962
    },
    {
      "buffer": 0,
      "byteLength": 453728,
      "byteOffset": 2009932,
      "byteStride": 16,
      "name": "floatBufferViews",
      "target": 34962
    }
  ],
  "buffers": [
    {
      "byteLength": 2463660,
      "uri": "scene.bin"
    }
  ],
  "extensionsUsed": [
    "KHR_materials_specular"
  ],
  "images": [
    {
      "uri": "textures/M_Jaguar_Sunburn_baseColor.png"
    },
    {
      "uri": "textures/M_Jaguar_Sunburn_metallicRoughness.png"
    },
    {
      "uri": "textures/M_Jaguar_Sunburn_normal.png"
    }
  ],
  "materials": [
    {
      "doubleSided": true,
      "extensions": {
        "KHR_materials_specular": {
          "specularColorFactor": [
            1.0,
            1.0,
            1.0
          ],
          "specularFactor": 0.05
        }
      },
      "name": "M_Jaguar_Sunburn",
      "normalTexture": {
        "index": 2,
        "texCoord": 1
      },
      "pbrMetallicRoughness": {
        "baseColorTexture": {
          "index": 0
        },
        "metallicFactor": 0.85,
        "metallicRoughnessTexture": {
          "index": 1
        }
      }
    }
  ],
  "meshes": [
    {
      "name": "Object_0",
      "primitives": [
        {
          "attributes": {
            "NORMAL": 1,
            "POSITION": 0,
            "TANGENT": 2,
            "TEXCOORD_0": 3,
            "TEXCOORD_1": 4,
            "TEXCOORD_2": 5,
            "TEXCOORD_3": 6
          },
          "indices": 7,
          "material": 0,
          "mode": 4
        }
      ]
    }
  ],
  "nodes": [
    {
      "children": [
        1
      ],
      "matrix": [
        0.9090909361839294,
        2.5752449341973675e-16,
        8.577288659985641e-32,
        0.0,
        -4.435979193368965e-32,
        4.593832311856242e-16,
        -0.9090909361839294,
        0.0,
        -2.5752449341973675e-16,
        0.9090909361839294,
        4.593832311856242e-16,
        0.0,
        0.0,
        0.0,
        0.0,
        1.0
      ],
      "name": "Sketchfab_model"
    },
    {
      "children": [
        2
      ],
      "name": "root"
    },
    {
      "children": [
        3
      ],
      "matrix": [
        1.0,
        0.0,
        0.0,
        0.0,
        0.0,
        2.220446049250313e-16,
        1.0,
        0.0,
        0.0,
        -1.0,
        2.220446049250313e-16,
        0.0,
        0.0,
        0.0,
        0.0,
        1.0
      ],
      "name": "GLTF_SceneRootNode"
    },
    {
      "children": [
        4
      ],
      "matrix": [
        0.5568223766064527,
        -0.8306315915677304,
        -3.2793810750275654e-08,
        0.0,
        0.6997619716579885,
        0.4690925681183328,
        0.5387813522733242,
        0.0,
        -0.44752879676247237,
        -0.30000553599193247,
        0.8424456388649222,
        0.0,
        0.0,
        0.0,
        0.0,
        1.0
      ],
      "name": "Jaguar_0"
    },
    {
      "mesh": 0,
      "name": "Object_4"
    }
  ],
  "samplers": [
    {
      "magFilter": 9729,
      "minFilter": 9987,
      "wrapS": 10497,
      "wrapT": 10497
    }
  ],
  "scene": 0,
  "scenes": [
    {
      "name": "Sketchfab_Scene",
      "nodes": [
        0
      ]
    }
  ],
  "textures": [
    {
      "sampler": 0,
      "source": 0
    },
    {
      "sampler": 0,
      "source": 1
    },
    {
      "sampler": 0,
      "source": 2
    }
  ]
}
